<svg width="74" height="75" viewBox="0 0 74 75" fill="none" xmlns="http://www.w3.org/2000/svg">
<g clip-path="url(#clip0_18:257)">
<path d="M46.9031 49.2493C47.2069 52.2931 46.9031 55.2152 45.5665 58.0764C44.7159 59.9027 43.3793 61.3029 41.7997 62.5204C40.8276 63.2509 39.7948 63.9814 38.7619 64.6511C37.6076 65.3816 36.3317 65.4425 35.1773 64.8337C32.9294 63.6162 30.6815 62.216 29.0411 60.1462C27.2792 57.8938 26.3678 55.2761 26.3071 52.4149C26.3071 51.4409 26.3678 50.4059 26.3678 49.4319C27.4007 49.1275 28.4335 48.884 29.4663 48.5797C33.2332 47.5447 37.0608 47.3012 40.9491 47.91C43.0148 48.1535 44.959 48.7623 46.9031 49.2493Z" fill="#F0A559"/>
<path d="M46.9031 49.2493C44.9589 48.7623 43.0148 48.1535 40.9491 47.8491C37.0608 47.2404 33.2332 47.4839 29.4663 48.5188C28.4335 48.7623 27.4007 49.0666 26.3678 49.371C26.3071 49.371 26.2463 49.371 26.1855 49.371C24.2414 49.4928 23.8161 49.0667 23.9376 47.0577C24.1199 44.3183 25.6387 42.492 28.0082 41.2744C30.1954 40.1178 32.6256 39.6917 35.1166 39.5699C35.7849 39.5699 36.0887 39.4481 36.0887 38.6567C36.0887 37.0131 36.514 35.4912 37.5468 34.2128C37.8506 33.8475 38.1544 33.5431 38.5796 33.8475C39.0049 34.2128 38.8227 34.578 38.5189 34.8824C37.6683 35.9173 37.3645 37.1348 37.243 38.4741C37.1823 39.2655 37.3645 39.509 38.2151 39.509C40.6453 39.509 43.0148 39.9352 45.2627 41.0309C47.6929 42.1876 49.3333 44.0139 49.6371 46.8142C49.9409 49.0667 49.2726 49.6754 46.9031 49.2493Z" fill="#653E21"/>
<path d="M13.9737 10.1056C13.9737 13.1495 13.913 16.2542 13.9737 19.4197C14.0952 24.1681 17.376 27.5772 21.6896 27.4555C26.1248 27.3337 29.041 24.1072 29.1018 19.1762C29.1018 16.315 29.1018 13.5147 29.1625 10.6535C29.1625 10.4709 29.2841 10.2883 29.4056 9.86212C34.6305 9.86212 39.9162 9.86212 45.5057 9.86212C45.5057 12.9668 45.5057 15.8889 45.5057 18.811C45.5665 23.9855 48.7865 27.5163 53.2824 27.4555C57.7783 27.3337 60.6338 24.0464 60.6946 18.8719C60.6946 15.9498 60.6946 13.0277 60.6946 10.1665C67.6814 8.58371 73.6355 12.9059 73.8177 20.0285C74.0607 34.8215 74.0607 49.6754 73.8177 64.4684C73.757 70.6779 69.5648 74.8175 63.3678 74.8783C45.7488 75.061 28.1297 75.061 10.5107 74.8783C4.25287 74.7566 0.182259 70.4344 0.121503 64.1032C-7.33929e-06 49.6146 -0.0607627 35.1259 0.121503 20.6373C0.182259 13.0277 6.01477 8.58371 13.9737 10.1056ZM3.34154 28.9774C3.28078 30.134 3.22003 31.0472 3.22003 31.9603C3.22003 42.1876 3.22003 52.4757 3.22003 62.703C3.22003 69.2168 5.77175 71.7736 12.2118 71.7736C28.7373 71.7736 45.202 71.7736 61.7274 71.7736C68.3497 71.7736 70.8407 69.2168 70.8407 62.5204C70.8407 52.354 70.8407 42.2485 70.8407 32.0821C70.8407 31.1081 70.8407 30.134 70.8407 28.9774C48.179 28.9774 25.8818 28.9774 3.34154 28.9774Z" fill="#653E21"/>
<path d="M57.7176 12.358C57.7176 14.8539 57.7783 17.4107 57.7176 19.9067C57.5961 22.5852 55.8342 24.3507 53.4039 24.4115C50.8522 24.5333 48.7258 22.6461 48.665 19.9675C48.5435 14.793 48.5435 9.6794 48.665 4.50488C48.7258 1.76543 50.8522 -0.0608645 53.3432 1.20904e-05C55.9557 0.0608887 57.6568 1.82631 57.7176 4.74839C57.7783 7.30521 57.7176 9.80115 57.7176 12.358Z" fill="#653E21"/>
<path d="M26.064 12.4188C26.064 14.9147 26.1248 17.4715 26.064 19.9675C25.9425 22.5852 24.1199 24.3506 21.6897 24.4115C19.381 24.4724 17.133 22.6461 17.0722 20.1501C16.9507 14.793 16.89 9.43583 17.0722 4.07869C17.133 1.58275 19.4417 -0.121797 21.8112 -0.0609206C24.3021 0.0608327 26.0033 1.76538 26.064 4.50483C26.1855 7.1834 26.1248 9.80109 26.064 12.4188C26.1248 12.4188 26.1248 12.4188 26.064 12.4188Z" fill="#653E21"/>
</g>
<defs>
<clipPath id="clip0_18:257">
<rect width="74" height="75" fill="white"/>
</clipPath>
</defs>
</svg>
