<svg width="76" height="75" viewBox="0 0 76 75" fill="none" xmlns="http://www.w3.org/2000/svg">
<g clip-path="url(#clip0_13:252)">
<path d="M34.2324 25.1642C34.4819 27.6264 34.2324 29.9902 33.1346 32.3047C32.436 33.782 31.3381 34.9147 30.0407 35.8996C29.2423 36.4905 28.394 37.0815 27.5456 37.6232C26.5975 38.2141 25.5496 38.2633 24.6014 37.7709C22.7551 36.786 20.9087 35.6534 19.5614 33.979C18.1143 32.157 17.3657 30.0394 17.3158 27.7249C17.3158 26.937 17.3657 26.0998 17.3657 25.3119C18.2141 25.0657 19.0624 24.8687 19.9107 24.6225C23.0046 23.7853 26.1484 23.5883 29.3421 24.0808C31.0387 24.327 32.6356 24.7702 34.2324 25.1642Z" fill="#F0A559"/>
<path d="M34.2325 25.1642C32.6356 24.7703 31.0388 24.2778 29.3421 24.0316C26.1484 23.5392 23.0046 23.7361 19.9107 24.5733C19.0624 24.7703 18.2141 25.0165 17.3657 25.2627C17.3158 25.2627 17.2659 25.2627 17.216 25.2627C15.6192 25.3612 15.2699 25.0165 15.3697 23.3914C15.5194 21.1754 16.7669 19.6981 18.7131 18.7132C20.5095 17.7775 22.5056 17.4328 24.5516 17.3343C25.1005 17.3343 25.35 17.2358 25.35 16.5956C25.35 15.266 25.6993 14.0349 26.5476 13.0008C26.7971 12.7053 27.0466 12.4591 27.3959 12.7053C27.7453 13.0008 27.5956 13.2962 27.346 13.5424C26.6474 14.3796 26.3979 15.3645 26.2981 16.4479C26.2482 17.0881 26.3979 17.2851 27.0965 17.2851C29.0926 17.2851 31.0388 17.6298 32.8851 18.5162C34.8812 19.4518 36.2285 20.9292 36.478 23.1944C36.7275 25.0658 36.1786 25.5582 34.2325 25.1642Z" fill="#653E21"/>
<path d="M42.4662 46.1917C29.5916 55.4005 14.4714 52.2488 6.13788 42.4983C-2.44518 32.4523 -1.94617 17.5311 7.086 8.12534C16.3178 -1.47741 31.388 -2.70854 42.0171 5.21989C51.8976 12.6066 57.0374 27.7741 46.9074 41.9074C48.0052 43.3355 48.9035 44.5666 51.2488 44.2711C52.5463 44.0741 54.3427 45.0098 55.3907 45.9947C61.7282 52.0518 67.9159 58.2074 74.1037 64.4123C76.6487 66.973 76.6487 70.2724 74.1536 72.7347C71.2593 75.5909 68.1155 75.8371 65.371 73.1779C59.0335 67.0223 52.696 60.8666 46.5581 54.5633C45.5601 53.5292 44.7117 51.7563 44.8614 50.4267C45.111 48.1615 43.8634 47.3243 42.4662 46.1917ZM26.348 5.81083C15.0203 5.76159 5.98817 14.5272 5.93827 25.6073C5.83847 36.7859 14.7708 45.7977 25.9488 45.8962C37.3762 45.9454 46.4583 37.1306 46.5082 25.9028C46.5581 14.8227 37.5758 5.90932 26.348 5.81083Z" fill="#653E21"/>
</g>
<defs>
<clipPath id="clip0_13:252">
<rect width="76" height="75" fill="white"/>
</clipPath>
</defs>
</svg>
