<svg width="129" height="77" viewBox="0 0 129 77" fill="none" xmlns="http://www.w3.org/2000/svg">
<g clip-path="url(#clip0_22:50)">
<path d="M64.7064 38.192C65.1192 42.196 64.7064 46.0973 62.952 49.896C61.8168 52.2573 60.0624 54.208 57.8952 55.748C56.5536 56.7746 55.212 57.6986 53.7672 58.52C52.2192 59.444 50.4648 59.5466 49.02 58.7253C46.0272 57.0826 43.0344 55.2346 40.8672 52.4626C38.4936 49.4853 37.3584 45.9946 37.2552 42.196C37.2552 40.8613 37.3584 39.5266 37.3584 38.2946C38.7 37.884 40.0416 37.576 41.4864 37.1653C46.5432 35.8306 51.7032 35.5226 56.8632 36.2413C59.5464 36.7546 62.1264 37.576 64.7064 38.192Z" fill="#F0A559"/>
<path d="M64.7064 38.192C62.1264 37.576 59.4432 36.7546 56.76 36.344C51.6 35.5226 46.44 35.9333 41.3832 37.268C40.0416 37.6786 38.5968 37.9866 37.2552 38.3973C37.152 38.3973 37.152 38.3973 37.0488 38.3973C34.4688 38.6026 33.8496 37.9866 34.056 35.42C34.3656 31.724 36.3264 29.3626 39.5256 27.72C42.5184 26.18 45.7176 25.564 49.02 25.4613C49.9488 25.4613 50.2584 25.256 50.2584 24.2293C50.2584 22.0733 50.7744 20.02 52.2192 18.2746C52.632 17.864 53.0448 17.3506 53.5608 17.864C54.18 18.2746 53.8704 18.788 53.4576 19.3013C52.3224 20.636 51.9096 22.2786 51.8064 24.024C51.7032 25.0506 51.9096 25.3586 53.0448 25.4613C56.3472 25.4613 59.4432 26.0773 62.436 27.412C65.6352 28.952 67.9056 31.3133 68.3184 35.0093C68.7312 38.0893 67.9056 38.808 64.7064 38.192Z" fill="#653E21"/>
<path d="M64.5 0C85.0368 0 105.677 0 126.214 0C128.484 0 128.897 0.410667 128.897 2.772C128.897 8.41867 128.897 14.0653 128.897 19.8147C128.897 21.7653 128.587 22.0733 126.73 22.5867C119.712 24.5373 115.584 29.1573 114.346 36.2413C113.004 44.352 118.37 52.36 126.317 54.4133C128.794 55.0293 128.897 55.132 128.897 57.6987C128.897 63.3453 128.897 68.992 128.897 74.6387C128.897 76.5893 128.381 77.1027 126.42 77.1027C85.0368 77.1027 43.6536 77.1027 2.3736 77.1027C0.516 77 0 76.4867 0 74.536C0 68.7867 0 63.14 0 57.3907C0 55.2347 0.1032 55.0293 2.2704 54.4133C8.8752 52.5653 13.1064 48.2533 14.448 41.3747C16.0992 32.956 10.9392 24.948 2.6832 22.5867C2.2704 22.484 1.8576 22.3813 1.548 22.2787C0.516 22.0733 0 21.4573 0 20.5333C0 14.2707 0 8.11067 0 1.848C0 0.616 0.7224 0 2.064 0C5.3664 0 8.6688 0 11.9712 0C29.5152 0 47.0592 0 64.5 0ZM125.285 73.304C125.285 72.8933 125.285 72.4827 125.285 72.1747C125.285 67.76 125.285 63.448 125.285 59.0333C125.285 58.212 124.975 57.904 124.15 57.596C116.616 55.132 111.043 47.8427 110.527 39.9373C109.908 30.6973 115.481 22.3813 124.459 19.404C125.078 19.1987 125.285 18.8907 125.285 18.2747C125.285 13.7573 125.285 9.13733 125.285 4.62C125.285 4.41467 125.285 4.10667 125.182 3.79867C114.758 3.79867 104.438 3.79867 93.912 3.79867C93.912 5.44133 93.912 6.87867 93.912 8.41867C93.912 9.548 93.0864 10.3693 92.0544 10.3693C91.0224 10.3693 90.3 9.548 90.3 8.41867C90.3 7.28933 90.1968 6.16 90.3 5.13333C90.4032 4.004 90.0936 3.696 88.8552 3.696C60.888 3.696 32.9208 3.696 5.0568 3.696C4.644 3.696 4.2312 3.696 3.612 3.696C3.612 4.20933 3.612 4.62 3.612 5.03067C3.612 9.34267 3.612 13.6547 3.612 17.9667C3.612 18.8907 3.8184 19.1987 4.7472 19.5067C12.4872 22.176 17.9568 29.3627 18.3696 37.268C18.8856 46.508 13.416 54.6187 4.5408 57.6987C3.8184 57.904 3.612 58.212 3.612 59.0333C3.612 63.448 3.612 67.9653 3.612 72.38C3.612 72.688 3.612 72.996 3.7152 73.4067C32.6112 73.4067 61.3008 73.4067 90.3 73.4067C90.3 72.8933 90.3 72.5853 90.3 72.1747C90.3 71.0453 90.3 69.916 90.3 68.684C90.3 67.5547 91.1256 66.836 92.0544 66.836C93.0864 66.836 93.8088 67.5547 93.912 68.684C93.912 69.0947 93.912 69.608 93.912 70.0187C93.912 71.148 93.912 72.2773 93.912 73.4067C104.542 73.304 114.862 73.304 125.285 73.304Z" fill="#653E21"/>
<path d="M94.0152 21.7653C94.0152 22.792 94.0152 23.9213 94.0152 24.948C94.0152 26.18 93.1896 26.8986 92.1576 26.8986C91.1256 26.8986 90.3 26.18 90.3 24.948C90.3 22.792 90.3 20.636 90.3 18.48C90.3 17.3506 91.0224 16.632 92.0544 16.5293C93.0864 16.5293 93.912 17.248 94.0152 18.3773C94.0152 18.48 94.0152 18.48 94.0152 18.5826C94.0152 19.8146 94.0152 20.7386 94.0152 21.7653Z" fill="#653E21"/>
<path d="M90.3 38.3974C90.3 37.3707 90.3 36.2414 90.3 35.2147C90.3 34.0854 91.0224 33.3667 92.0544 33.3667C93.0864 33.3667 93.912 34.0854 93.912 35.2147C94.0152 37.4734 94.0152 39.6294 93.912 41.888C93.912 43.0174 93.0864 43.736 92.0544 43.736C91.0224 43.736 90.3 43.0174 90.3 41.888C90.3 40.656 90.3 39.5267 90.3 38.3974Z" fill="#653E21"/>
<path d="M90.3 55.1321C90.3 54.1054 90.3 52.9761 90.3 51.9494C90.3 50.8201 91.0224 50.1014 92.0544 49.9988C93.0864 49.9988 93.912 50.7174 93.912 51.8468C93.912 54.0028 93.912 56.1588 93.912 58.3148C93.912 59.5468 93.0864 60.2654 92.0544 60.2654C91.0224 60.2654 90.3 59.5468 90.1968 58.3148C90.3 57.2881 90.3 56.2614 90.3 55.1321Z" fill="#653E21"/>
</g>
<defs>
<clipPath id="clip0_22:50">
<rect width="129" height="77" fill="white"/>
</clipPath>
</defs>
</svg>
