<svg viewBox="0 0 341 392" fill="none" xmlns="http://www.w3.org/2000/svg">
<path d="M306.363 190.099C310.308 228.555 306.583 265.96 289.051 301.474C277.656 324.589 260.125 342.452 239.307 357.582C226.158 367.038 212.791 375.864 198.766 384.27C183.645 393.306 166.333 394.146 151.651 386.581C121.629 370.821 92.2644 353.379 70.5697 327.111C46.9026 298.742 35.2883 265.54 34.1926 229.185C33.7543 216.577 34.6308 203.968 35.0691 191.36C48.6558 187.787 62.2424 184.005 75.829 180.643C126.012 167.824 176.633 164.672 228.131 172.237C254.647 176.44 280.286 183.795 306.363 190.099Z" fill="#FBB271"/>
<path d="M303.504 194.554C277.439 188.304 251.811 181.012 225.089 177.053C173.615 169.345 123.018 172.678 72.8583 185.387C59.278 188.72 45.6977 192.471 32.1175 196.012C31.4603 196.012 30.5842 196.012 29.9271 196.012C4.08074 197.679 -1.61422 192.054 0.357113 167.261C2.98556 132.676 23.1369 109.759 54.2402 94.3415C83.5911 79.7576 115.351 74.1323 147.988 73.299C156.968 73.0906 160.692 71.6322 160.473 62.0485C160.254 41.4227 165.949 22.2552 179.967 6.00454C183.691 1.62936 187.853 -2.32914 193.548 1.62936C199.462 5.7962 196.395 10.5881 192.671 14.9632C181.282 28.0888 177.12 43.5061 176.025 60.1734C175.368 69.7572 177.558 73.299 188.51 73.299C220.927 73.5073 252.25 78.9242 281.819 92.2581C314.018 106.842 335.703 129.343 340.083 164.553C343.369 192.887 334.607 200.388 303.504 194.554Z" fill="#FBB271"/>
<path d="M116.993 320.764C122.013 320.764 126.083 316.871 126.083 312.07C126.083 307.268 122.013 303.376 116.993 303.376C111.972 303.376 107.903 307.268 107.903 312.07C107.903 316.871 111.972 320.764 116.993 320.764Z" fill="white"/>
<path d="M188.023 332.49C193.043 332.49 197.113 328.598 197.113 323.796C197.113 318.995 193.043 315.102 188.023 315.102C183.003 315.102 178.933 318.995 178.933 323.796C178.933 328.598 183.003 332.49 188.023 332.49Z" fill="white"/>
<path d="M114.667 213.403C117.703 213.403 120.164 211.049 120.164 208.146C120.164 205.243 117.703 202.889 114.667 202.889C111.632 202.889 109.171 205.243 109.171 208.146C109.171 211.049 111.632 213.403 114.667 213.403Z" fill="white"/>
<path d="M144.898 239.283C145.955 238.272 144.475 236.857 142.995 237.665C136.864 241.103 130.1 245.551 132.425 248.988C134.328 251.818 141.938 250.807 149.126 248.988C150.817 248.583 150.183 246.764 148.491 246.966C143.206 247.775 137.287 247.977 136.864 247.168C136.019 245.955 141.092 242.518 144.898 239.283Z" fill="white"/>
<path d="M231.783 280.124C218.253 290.84 146.377 341.993 101.349 265.971C100.504 264.354 102.618 262.939 103.886 264.354C123.123 287.201 165.192 321.977 220.367 277.9L229.034 271.633C232.628 268.802 236.222 267.993 240.45 268.195L252.077 268.6C257.362 268.802 256.516 278.709 251.231 278.507H236.856C234.954 278.305 233.262 279.113 231.783 280.124Z" fill="white"/>
<path d="M239.182 117.971C206.415 100.988 178.087 119.589 166.249 137.785C156.102 153.354 151.24 190.152 169.208 216.031C169.631 216.638 169.208 217.244 168.574 217.244C157.582 216.031 143.418 209.561 137.287 185.906C129.254 155.376 121.221 166.294 117.838 173.775C116.359 176.807 114.245 179.234 111.708 180.649C101.349 186.512 84.6487 192.78 81.6891 219.469C81.0549 225.534 83.5917 230.791 87.8197 234.026C93.316 238.272 101.561 242.113 113.188 234.43C115.09 233.217 113.822 230.589 111.708 230.993C102.406 232.813 88.6653 233.217 90.3564 219.266C92.6818 199.452 96.0642 195.206 115.302 187.928C118.261 186.917 121.221 185.097 121.855 181.458C122.701 177.616 123.969 173.168 126.294 173.37C129.465 173.775 132.636 191.567 132.848 192.78C132.848 192.78 132.848 192.78 132.848 192.982C133.482 194.397 147.012 223.714 166.46 225.13C168.151 225.332 169.631 225.534 171.111 225.938C173.648 226.545 177.453 227.758 181.258 229.376C181.47 229.578 181.47 229.578 181.681 229.78C195.211 241.102 200.496 253.031 202.187 262.939C202.398 264.152 204.301 264.152 204.301 262.736C203.878 234.835 179.144 221.288 170.265 203.091C158.639 179.436 162.866 124.643 209.163 118.982C228.823 116.556 239.816 124.846 245.946 135.359C253.768 148.906 245.312 165.283 229.669 168.72C203.667 174.381 197.113 215.223 206.838 236.857C212.545 249.392 209.797 265.163 205.781 276.081C205.146 277.496 207.26 278.507 208.106 277.092C213.18 268.398 216.773 252.829 210.431 228.567C203.244 200.867 217.408 179.234 235.165 175.594C253.134 171.955 263.704 153.758 256.939 137.583C253.557 129.698 248.061 122.621 239.182 117.971Z" fill="white"/>
</svg>
