<svg viewBox="0 0 44 44" fill="none" xmlns="http://www.w3.org/2000/svg">
<g clip-path="url(#clip0_56:133)">
<path d="M43.9992 21.9926C44.0131 34.1014 34.1225 44.0413 21.9922 44.0135C10.1402 43.9718 0.0408935 34.713 -0.000839015 22.1595C-0.0425716 10.3427 9.41681 0.0273743 21.9505 -0.000429848C34.0807 -0.028234 43.9853 9.87004 43.9992 21.9926ZM8.2622 35.7418C8.52651 35.6862 8.70735 35.6723 8.88819 35.6167C10.6549 35.1579 12.4355 34.713 14.1882 34.2126C15.0229 33.9762 15.7323 34.0179 16.567 34.3794C21.4775 36.4369 26.1933 35.9225 30.3944 32.6694C34.6372 29.3746 36.4038 24.8843 35.5136 19.5737C34.0668 11.0378 25.3586 6.11648 17.2069 9.09153C9.61156 11.8719 6.11993 20.95 9.87586 28.1513C10.0845 28.5405 10.1541 28.8881 10.015 29.3329C9.75066 30.1671 9.542 31.029 9.31943 31.877C8.97166 33.1421 8.62389 34.4072 8.2622 35.7418Z" fill="#68411A"/>
<path d="M33.386 22.7573C33.2608 26.2607 31.3828 29.6528 27.5573 31.7937C23.8571 33.8651 20.0733 33.7539 16.3591 31.7242C15.9557 31.5017 15.6079 31.4739 15.1767 31.5851C14.1751 31.8771 13.1596 32.0995 12.158 32.4054C11.546 32.6 11.546 32.3776 11.6851 31.9049C11.9772 30.9039 12.2137 29.8891 12.5197 28.902C12.631 28.5406 12.5754 28.2626 12.3945 27.9289C10.0436 23.8695 10.0019 19.7684 12.478 15.7646C15.121 11.4828 20.4072 9.56429 25.2621 10.9823C30.0752 12.3864 33.386 16.8351 33.386 22.7573ZM15.1071 18.8231C15.0654 19.4069 15.2045 19.963 15.4271 20.5052C15.9835 21.8537 16.8738 22.9798 17.8058 24.078C19.6838 26.2746 22.0208 27.7343 24.8447 28.4016C26.4723 28.7769 28.8232 27.7899 28.9623 25.8714C28.9902 25.3709 28.9345 25.0373 28.4337 24.8148C27.6686 24.4812 26.9174 24.1197 26.1802 23.7305C25.6516 23.4524 25.276 23.5498 24.956 24.0641C24.7752 24.3561 24.5109 24.5924 24.3161 24.8844C23.9823 25.357 23.6206 25.357 23.1198 25.1346C21.4227 24.37 20.0733 23.23 19.03 21.7008C18.6405 21.1169 18.5153 20.6998 19.0995 20.1577C19.489 19.7962 19.9064 19.3374 19.656 18.6979C19.3221 17.836 18.9604 16.988 18.5988 16.1261C18.4736 15.8341 18.2927 15.6117 17.9449 15.57C17.2216 15.4866 16.5817 15.5839 16.067 16.2095C15.441 16.988 15.0515 17.8221 15.1071 18.8231Z" fill="#68411A"/>
</g>
<defs>
<clipPath id="clip0_56:133">
<rect width="44" height="44" fill="white"/>
</clipPath>
</defs>
</svg>
