<svg width="62" height="64" viewBox="0 0 62 64" fill="none" xmlns="http://www.w3.org/2000/svg">
<path d="M53.7177 63.0003C52.0939 62.3888 50.7653 61.1659 49.5843 59.9429C46.3367 56.5797 43.0891 53.3694 39.8415 50.0063C38.9558 49.089 38.5129 48.1718 39.251 47.1017C39.8415 46.3373 38.9558 46.1845 38.6605 45.7259C37.9224 44.6558 37.1843 44.6558 36.151 45.4201C21.9796 54.5924 3.08435 45.1144 1.1653 27.9928C-0.310885 14.8458 8.25102 3.2276 20.7986 1.24028C33.1986 -0.594181 45.0081 8.27236 46.7796 21.1136C47.6653 27.2284 46.4843 33.0375 43.2367 38.2352C43.0891 38.5409 42.4986 38.9995 43.0891 39.3053C43.8272 39.7639 44.1224 41.2926 45.3034 40.834C46.1891 40.5282 46.7796 40.6811 47.5177 41.4455C51.2081 45.2672 55.0462 49.089 58.7367 52.9108C59.7701 53.828 60.2129 55.2039 60.6558 56.4269C60.6558 57.0383 60.6558 57.6498 60.6558 58.4142C59.9177 60.7073 58.4415 62.3888 56.0796 63.1532C55.3415 63.0003 54.6034 63.0003 53.7177 63.0003ZM7.80816 39.7639C7.80816 38.2352 7.80816 36.8593 7.80816 35.4835C7.80816 30.2858 10.7605 26.3112 15.632 24.9353C16.3701 24.7825 16.6653 24.9353 17.1082 25.5468C20.2082 31.0502 27.8843 31.0502 30.9843 25.5468C31.2796 24.9353 31.5748 24.7825 32.3129 24.9353C37.332 26.1583 40.432 30.2858 40.5796 35.7892C40.5796 37.0122 40.432 38.2352 40.7272 39.4581C47.3701 31.8146 48.2558 18.3619 39.8415 9.34246C31.2796 0.170175 17.4034 0.170175 8.69387 9.03672C0.131972 17.7504 0.574829 31.8146 7.80816 39.7639ZM38.9558 37.3179C38.9558 36.5536 38.9558 35.7892 38.9558 35.0249C38.8082 31.2031 36.5939 27.9928 33.051 26.6169C32.4605 26.3112 32.0177 26.4641 31.5748 27.0755C27.5891 32.5789 20.2082 32.5789 16.3701 27.0755C15.9272 26.4641 15.632 26.3112 14.8939 26.6169C11.9415 27.8399 10.0224 29.9801 9.43197 33.1904C8.98911 35.4835 9.28435 37.6237 9.13673 39.9167C9.13673 40.9868 9.43197 41.5983 10.1701 42.2098C17.551 48.4775 28.032 49.089 36.151 43.5857C38.0701 42.2098 39.3986 40.834 38.9558 38.2352C38.8082 38.0823 38.9558 37.7765 38.9558 37.3179ZM59.1796 57.0383C59.1796 56.1211 58.8843 55.2039 58.1462 54.2867C54.3081 50.312 50.6177 46.4902 46.7796 42.6684C46.3367 42.2098 46.0415 42.2098 45.5986 42.6684C43.9748 44.35 42.4986 45.8787 40.8748 47.5603C40.432 48.0189 40.2843 48.3247 40.8748 48.7833C44.7129 52.7579 48.551 56.7326 52.5367 60.5544C53.8653 61.7774 55.4891 61.9302 57.1129 61.013C58.4415 60.2486 59.1796 58.8728 59.1796 57.0383ZM42.2034 40.0696C41.7605 40.5282 41.6129 40.6811 41.4653 40.834C41.0224 41.2926 40.5796 41.9041 39.9891 42.3627C38.9558 43.127 38.8082 43.8914 39.9891 44.8086C40.7272 45.4201 41.1701 45.573 41.7605 44.8086C42.2034 44.1971 42.7939 43.7385 43.3843 43.127C43.6796 42.8213 44.2701 42.6684 43.8272 42.0569C43.2367 41.2926 42.7939 40.6811 42.2034 40.0696Z" fill="#A43422" stroke="#A43422" stroke-width="1.5" stroke-miterlimit="10"/>
<path d="M30.8368 16.5273C30.8368 20.502 27.8844 23.7123 24.0463 23.7123C20.3558 23.7123 17.2557 20.502 17.2557 16.6802C17.2557 12.7055 20.2081 9.64807 24.0463 9.64807C27.8844 9.4952 30.8368 12.5526 30.8368 16.5273ZM29.5082 16.5273C29.5082 13.317 27.1463 11.0239 24.0463 11.0239C20.9462 11.0239 18.7319 13.4699 18.7319 16.6802C18.7319 19.8905 21.0939 22.1836 24.1939 22.1836C27.1463 22.1836 29.5082 19.7377 29.5082 16.5273Z" fill="#A43422" stroke="#A43422" stroke-miterlimit="10"/>
<path d="M47.2224 48.7834C47.37 48.9362 47.6653 49.0891 47.9605 49.242C49.8795 51.0764 51.651 53.0637 53.57 54.8981C54.0129 55.3567 54.3081 55.8153 53.8653 56.2739C53.4224 56.7325 52.9796 56.2739 52.6843 55.9682C50.7653 54.1338 48.9938 52.1465 47.0748 50.312C46.7795 50.0063 46.4843 49.5477 46.6319 49.0891C46.6319 48.7834 46.9272 48.6305 47.2224 48.7834Z" fill="#A43422" stroke="#A43422" stroke-miterlimit="10"/>
</svg>
