<svg width="59" height="62" viewBox="0 0 59 62" fill="none" xmlns="http://www.w3.org/2000/svg">
<g clip-path="url(#clip0_13:79)">
<path d="M10.9203 18.5235C11.2237 10.563 15.0154 4.74572 22.2956 1.68399C29.5758 -1.53082 36.401 -0.153046 42.1645 5.20498C47.7764 10.4099 49.5964 16.9926 47.018 24.4939C43.5296 34.7507 37.6144 43.6297 31.5476 52.5087C30.3342 54.3457 28.8175 54.3457 27.6041 52.6618C21.3856 43.6297 15.4704 34.2914 11.8303 23.8815C11.2237 22.1976 10.9203 20.5136 10.9203 18.5235ZM29.4242 47.9161C34.581 39.9556 39.4345 32.3013 42.6195 23.8815C43.5296 21.5852 44.1362 19.1358 43.5296 16.5334C41.8612 8.41979 35.491 3.8272 27.3008 4.74572C19.5656 5.66424 13.4987 14.084 15.7738 21.7383C18.3522 31.2297 24.1157 39.1902 29.4242 47.9161Z" fill="#A43422"/>
<path d="M27.9075 57.4074C34.8843 58.0198 42.0129 56.9482 48.9897 54.805C50.5064 54.3457 52.0231 53.5803 53.3882 52.6617C54.9049 51.5901 54.9049 50.5185 53.3882 49.4469C51.1131 47.9161 48.6864 47.1506 46.108 46.5383C45.1979 46.2321 44.1362 46.2321 43.0746 45.9259C42.0129 45.6198 41.4062 44.7012 41.4062 43.6296C41.5578 42.558 42.3162 41.6395 43.5296 41.7926C48.6864 42.558 53.6915 43.6296 57.4833 47.4568C59.7584 49.7531 59.455 52.6617 57.3316 55.1111C55.2082 57.4074 52.3265 58.6321 49.2931 59.3975C36.0977 62.9185 22.9023 62.9185 9.70694 59.3975C6.97687 58.6321 4.24679 57.5605 2.1234 55.4173C-0.60668 52.6617 -0.60668 49.4469 2.27507 46.8445C6.06684 43.6296 10.7686 42.558 15.4704 41.7926C16.6838 41.6395 17.5938 42.405 17.7455 43.6296C17.8972 45.0074 17.1388 45.7729 15.9255 46.079C13.9537 46.5383 11.982 46.9975 10.0103 47.6099C8.79692 48.0691 7.43188 48.5284 6.37018 49.2938C4.09512 50.6716 4.09512 51.7432 6.37018 53.121C10.162 55.4173 14.4087 56.1827 18.8072 56.7951C21.6889 57.2543 24.7224 57.5605 27.9075 57.4074Z" fill="#A43422"/>
<path d="M29.5758 24.4938C26.6941 24.4938 24.419 22.3506 24.419 19.5951C24.419 16.8395 26.6941 14.5432 29.5758 14.5432C32.3059 14.5432 34.4293 16.6864 34.581 19.442C34.581 22.0444 32.4576 24.3407 29.5758 24.4938Z" fill="#A43422"/>
</g>
<defs>
<clipPath id="clip0_13:79">
<rect width="59" height="62" fill="white"/>
</clipPath>
</defs>
</svg>
