<svg width="63" height="63" viewBox="0 0 63 63" fill="none" xmlns="http://www.w3.org/2000/svg">
<g clip-path="url(#clip0_13:74)">
<path d="M47.1333 4.35557C46.8222 4.66668 46.6667 4.97779 46.5111 5.2889C44.9556 7.46668 43.2444 8.0889 40.2889 6.84446C27.2222 1.55557 12.4444 8.55557 7 22.0889C1.86667 34.6889 8.24445 49.9333 20.8444 55.3778C30.9556 59.7333 42.3111 57.7111 50.0889 50.0889C58.0222 42.3111 60.0445 30.8 55.5333 20.5333C55.3778 20.2222 55.2222 19.7556 54.9111 19.1333C56.1556 18.0445 57.4 16.9556 58.6445 15.8667C65.1778 24.7333 65.1778 41.6889 54.4445 52.8889C42.6222 65.3333 23.6444 66.1111 10.8889 54.9111C-1.71111 44.0222 -3.42222 25.2 6.84445 11.8222C16.6444 -0.777764 34.6889 -3.42221 47.1333 4.35557Z" fill="#A43422"/>
<path d="M47.2889 22.5556C51.8 29.5556 49.9333 39.9778 43.2444 45.4223C35.7778 51.6445 25.3555 51.1778 18.3555 44.1778C11.9778 38.1111 11.3555 27.0667 17.1111 19.9111C22.7111 12.9111 33.1333 10.8889 40.9111 15.8667C39.6667 16.8 38.5778 17.8889 37.3333 18.6667C36.8667 18.9778 35.9333 18.9778 35.4667 18.8222C28.7778 17.1111 22.4 19.9111 19.6 25.8222C16.8 31.7334 18.6667 38.4223 24.1111 42.3111C28.1555 45.1111 34.0667 45.2667 38.2667 42.6222C42.7778 39.6667 45.7333 34.3778 44.1778 29.4C43.4 25.9778 44.9555 24.4222 47.2889 22.5556Z" fill="#A43422"/>
<path d="M55.6889 1.40005C55.6889 3.26672 55.6889 5.28894 55.6889 7.31117C57.7111 7.31117 59.5778 7.31117 62.2222 7.31117C58.4889 11.0445 55.2222 14.3112 51.9556 17.5778C51.6445 17.8889 51.0222 18.0445 50.5556 17.8889C47.7556 17.2667 46.0445 18.8223 44.3333 20.6889C42.6222 22.5556 40.7556 24.2667 39.0445 25.9778C37.4889 27.5334 35.9333 28.7778 36.5556 31.7334C37.0222 34.5334 34.0667 36.8667 31.2667 36.7112C28.3111 36.5556 25.9778 33.9112 26.2889 31.1112C26.4444 28.3112 29.0889 25.9778 31.8889 26.4445C33.7556 26.7556 34.6889 26.1334 35.7778 24.8889C38.2667 22.2445 41.0667 19.6001 43.5556 16.9556C44.3333 16.1778 44.8 14.9334 44.8 13.8445C44.8 11.9778 45.2667 10.7334 46.6667 9.33339C49.4667 6.53339 52.1111 3.73339 54.9111 0.777832C55.2222 1.08894 55.5333 1.2445 55.6889 1.40005Z" fill="#A43422"/>
</g>
<defs>
<clipPath id="clip0_13:74">
<rect width="63" height="63" fill="white"/>
</clipPath>
</defs>
</svg>
