<svg viewBox="0 0 44 44" fill="none" xmlns="http://www.w3.org/2000/svg">
<path d="M44 22C44 9.84973 34.1503 0 22 0C9.84973 0 0 9.84973 0 22C0 32.9807 8.04504 42.0823 18.5625 43.7327V28.3594H12.9766V22H18.5625V17.1531C18.5625 11.6394 21.847 8.59375 26.8722 8.59375C29.2785 8.59375 31.7969 9.02344 31.7969 9.02344V14.4375H29.0228C26.29 14.4375 25.4375 16.1335 25.4375 17.875V22H31.5391L30.5637 28.3594H25.4375V43.7327C35.955 42.0823 44 32.9807 44 22Z" fill="#68411A"/>
<circle cx="22" cy="22" r="22" fill="#68411A"/>
<path fill-rule="evenodd" clip-rule="evenodd" d="M27.8465 14.2535C27.1609 14.1164 26.2348 14.0139 25.6524 14.0139C24.0754 14.0139 23.9729 14.6996 23.9729 15.7966V17.7496H27.9151L27.5715 21.795H23.9729V34.0999H19.037V21.795H16.5V17.7496H19.037V15.2473C19.037 11.8198 20.6479 9.8999 24.6925 9.8999C26.0977 9.8999 27.1262 10.1056 28.4628 10.3799L27.8465 14.2535Z" fill="#FBB271"/>
</svg>
