<svg viewBox="0 0 44 44" fill="none" xmlns="http://www.w3.org/2000/svg">
<circle cx="22" cy="22" r="22" fill="#68411A"/>
<path d="M30.8 22.819V28.8863H27.2484V23.189C27.2484 21.7832 26.7305 20.8213 25.4726 20.8213C24.5108 20.8213 23.9188 21.4872 23.6968 22.0791C23.6229 22.3011 23.5489 22.5971 23.5489 22.967V28.8863H19.9973C19.9973 28.8863 20.0713 19.2675 19.9973 18.3056H23.5489V19.7854C23.9928 19.0455 24.8807 18.0096 26.7305 18.0096C29.0242 18.0096 30.8 19.5634 30.8 22.819ZM16.2977 13.2002C15.1139 13.2002 14.3 14.0141 14.3 15.05C14.3 16.0858 15.0399 16.8997 16.2238 16.8997C17.4816 16.8997 18.2215 16.0858 18.2215 15.05C18.2955 13.9401 17.5556 13.2002 16.2977 13.2002ZM14.522 28.8863H18.0735V18.3056H14.522V28.8863Z" fill="#FBB271"/>
</svg>
