<svg width="64" height="77" viewBox="0 0 64 77" fill="none" xmlns="http://www.w3.org/2000/svg">
<g clip-path="url(#clip0_22:41)">
<path d="M43.7378 38.2607C44.0761 41.854 43.7717 45.3104 42.2156 48.5958C41.2008 50.7518 39.6786 52.3944 37.8182 53.7976C36.6681 54.6873 35.4841 55.5087 34.2664 56.2958C32.9471 57.1513 31.3911 57.2198 30.1057 56.5011C27.4672 55.0296 24.8626 53.4211 22.9683 50.9913C20.9049 48.3562 19.8562 45.2762 19.7886 41.8882C19.7548 40.7247 19.8224 39.5611 19.8562 38.3976C21.0402 38.0553 22.2579 37.7131 23.4419 37.4051C27.8393 36.2073 32.3044 35.8993 36.8372 36.618C39.1712 36.9944 41.4376 37.6789 43.7378 38.2607Z" fill="#F0A559"/>
<path d="M43.7378 38.2606C41.4376 37.6788 39.1712 36.9944 36.8372 36.6179C32.3044 35.8993 27.8393 36.2073 23.4419 37.405C22.2579 37.713 21.0402 38.0553 19.8562 38.3975C19.7886 38.3975 19.7209 38.3975 19.6533 38.3975C17.3531 38.5686 16.8457 38.021 17.0148 35.7281C17.2516 32.477 19.0444 30.3553 21.7505 28.8837C24.3214 27.5148 27.129 27.0015 30.0042 26.8988C30.7822 26.8646 31.1205 26.7277 31.1205 25.8379C31.0867 23.9215 31.5941 22.1077 32.8457 20.5677C33.1839 20.157 33.5222 19.7806 34.0634 20.157C34.6046 20.5677 34.334 21.0126 33.9958 21.4233C32.981 22.6553 32.6427 24.0926 32.5412 25.6668C32.4736 26.5566 32.6765 26.8988 33.6575 26.8988C36.4989 26.8988 39.2727 27.4121 41.8774 28.6784C44.7188 30.0473 46.6131 32.169 47.019 35.4544C47.2558 38.0895 46.4778 38.8081 43.7378 38.2606Z" fill="#653E21"/>
<path d="M32.8797 77C32.3046 77 31.7634 77 31.1884 77C29.5985 76.3156 28.0087 75.6311 26.4526 74.9467C14.0044 69.4369 5.54777 60.3338 2.19893 46.8502C-0.541027 35.8991 -0.10128 24.7084 0.372293 13.552C0.439946 12.0804 1.42092 11.3618 2.84164 11.2591C4.39766 11.1564 5.98751 11.0538 7.54354 10.9511C13.9368 10.5062 19.8903 8.624 25.1672 4.85956C27.2645 3.388 29.1588 1.64267 31.1884 0C31.7634 0 32.3046 0 32.8797 0C35.1461 1.81378 37.311 3.83289 39.7465 5.44133C46.0383 9.68489 53.1419 11.0538 60.5837 11.2591C62.8163 11.3276 63.6958 12.0462 63.7634 14.0653C64.1017 23.0658 64.3046 32.032 63.0192 40.9982C60.8882 56.056 53.3786 67.2124 39.7465 73.8858C37.4801 75.0151 35.1461 75.9733 32.8797 77ZM5.10802 16.4951C5.44629 24.332 5.41246 32.032 6.19047 39.6636C7.7465 55.0293 16.2032 65.1933 30.2412 70.84C31.459 71.3191 32.4738 71.3876 33.7254 70.8742C44.7867 66.3569 52.9389 58.9991 56.423 47.0898C58.3512 40.4164 58.7232 33.5378 58.6556 26.6249C58.6218 23.2711 58.6556 19.9516 58.6556 16.4951C48.5414 16.0502 39.645 13.0729 32.034 6.33111C24.4569 13.0387 15.5605 16.016 5.10802 16.4951Z" fill="#653E21"/>
</g>
<defs>
<clipPath id="clip0_22:41">
<rect width="64" height="77" fill="white"/>
</clipPath>
</defs>
</svg>
