<svg width="77" height="75" viewBox="0 0 77 75" fill="none" xmlns="http://www.w3.org/2000/svg">
<g clip-path="url(#clip0_18:264)">
<path d="M76.9488 37.4744C76.9488 44.9282 76.8975 52.3819 77 59.8357C77 61.5834 76.4361 62.3545 74.7956 62.92C63.261 66.8267 51.7776 70.8363 40.243 74.6917C39.2177 75.0516 37.8336 75.0516 36.8083 74.6917C25.2736 70.7849 13.7903 66.7753 2.25566 62.8686C0.615181 62.3031 8.97795e-07 61.532 0.0512659 59.7843C0.102531 44.7226 0.102531 29.6609 0.0512659 14.5478C0.0512659 12.6458 0.768976 11.8747 2.46072 11.3093C13.8415 7.71092 25.2224 3.95835 36.6545 0.257181C37.7823 -0.102654 39.2177 -0.102654 40.3455 0.257181C51.7776 3.90694 63.1585 7.71092 74.5906 11.4121C76.4874 12.0289 77.0513 12.9542 77 14.9076C76.8975 22.4128 76.9488 29.9693 76.9488 37.4744ZM2.71705 14.8562C2.66578 15.4731 2.56325 15.8843 2.56325 16.2956C2.56325 30.432 2.56325 44.5169 2.51199 58.6533C2.51199 60.1441 3.12717 60.7095 4.40879 61.1208C13.6878 64.2565 22.9155 67.495 32.1432 70.6307C33.7836 71.1962 35.4241 71.7102 37.0646 72.2757C37.2184 71.813 37.3209 71.6588 37.3209 71.5046C37.3209 56.957 37.3722 42.4093 37.2696 27.8617C37.2696 27.142 36.2443 26.0111 35.4754 25.7027C31.733 24.3148 27.8882 23.1324 24.0945 21.8987C17.02 19.5855 9.94541 17.2209 2.71705 14.8562ZM39.6278 72.4813C50.8036 68.6259 61.4667 64.8734 72.1811 61.275C73.9754 60.6581 74.488 59.8871 74.488 58.0365C74.3855 44.5169 74.4368 30.9974 74.4368 17.4265C74.4368 16.604 74.3342 15.8329 74.283 14.8562C71.4121 15.7815 68.8489 16.7068 66.2344 17.4265C64.8502 17.7863 64.5426 18.5574 64.5939 19.8425C64.6452 22.5156 64.7477 25.1372 64.5426 27.8103C64.4914 28.6328 63.6711 29.8665 62.9021 30.1749C59.775 31.4601 56.494 32.4882 53.2643 33.5677C50.8549 34.3901 50.4448 34.0817 50.3935 31.4601C50.3422 28.6842 50.3935 25.9083 50.3935 22.7212C47.1638 23.8007 44.498 24.7774 41.6784 25.5485C39.9354 26.0111 39.5253 26.9364 39.5253 28.6328C39.5766 42.3579 39.5766 56.0317 39.5766 69.7568C39.6278 70.5279 39.6278 71.2476 39.6278 72.4813ZM5.28029 13.057C6.61318 13.5711 7.48469 13.9309 8.35619 14.2394C17.225 17.1694 26.1964 19.8425 34.9627 23.1324C39.7816 24.9316 43.2677 22.1043 47.2663 20.9734C37.4747 17.0666 27.6831 13.4169 17.8915 9.81852C17.1738 9.5615 16.1997 9.5615 15.482 9.76712C12.3036 10.6924 9.17643 11.7719 5.28029 13.057ZM59.6212 17.118C58.8009 16.7068 58.4421 16.5012 58.0832 16.3984C49.8808 13.3655 41.5246 10.641 33.5273 7.14546C28.9135 5.08926 25.1711 6.37438 21.0186 7.96794C21.2237 8.27637 21.3262 8.48199 21.4288 8.5334C31.1178 12.1318 40.8582 15.7815 50.5985 19.3285C51.3163 19.5855 52.2903 19.5341 53.0593 19.2771C55.1099 18.7116 57.0579 17.9919 59.6212 17.118ZM71.8735 13.1084C61.3642 9.6129 51.5726 6.58 41.8835 3.08446C38.3975 1.85074 35.6804 2.87884 32.4507 4.31818C42.7037 8.12216 52.7004 11.8233 62.6458 15.4731C63.1585 15.6787 63.8249 15.6787 64.3376 15.5245C66.5932 14.8562 68.8489 14.0851 71.8735 13.1084ZM53.1618 31.1002C55.9301 30.1235 58.6471 29.2496 61.3642 28.2215C61.7743 28.0673 62.287 27.3991 62.3382 26.9364C62.4408 24.3148 62.3895 21.7445 62.3895 19.0714C52.8542 21.0248 52.5466 21.4361 52.9567 30.4834C52.9055 30.5348 52.9567 30.5862 53.1618 31.1002Z" fill="#653E21"/>
<path d="M59.6212 17.1179C57.0579 17.9404 55.0586 18.7115 53.008 19.2769C52.239 19.4825 51.265 19.5854 50.5473 19.3283C40.8069 15.7814 31.1178 12.1316 21.3775 8.53327C21.275 8.48186 21.1724 8.27624 20.9674 7.96781C25.1198 6.37425 28.8622 5.14053 33.476 7.14533C41.4734 10.6409 49.8296 13.3653 58.032 16.3982C58.4421 16.5525 58.8009 16.7581 59.6212 17.1179Z" fill="#653E21"/>
<path d="M53.1618 31.1002C52.9567 30.6376 52.9055 30.5348 52.9055 30.4319C52.4953 21.3847 52.8029 21.0248 62.3382 19.02C62.3382 21.6931 62.3895 24.3147 62.287 26.885C62.287 27.3476 61.7743 28.0159 61.3129 28.1701C58.6471 29.1982 55.9301 30.1235 53.1618 31.1002Z" fill="#653E21"/>
<path d="M7.74101 54.7463C9.74034 55.466 11.4834 55.9801 13.0726 56.6997C13.4314 56.854 13.8415 57.6764 13.739 58.0877C13.6365 58.4475 12.8162 58.9616 12.4574 58.8587C10.6631 58.3447 8.9201 57.7278 7.17709 57.0082C6.76698 56.8539 6.30559 55.9287 6.40812 55.6716C6.71571 55.209 7.38216 54.952 7.74101 54.7463Z" fill="#653E21"/>
<path d="M56.494 60.1439C57.3142 62.9198 55.725 64.2563 52.7517 64.976C50.1372 65.5929 47.6252 66.7238 45.0619 67.5977C42.6012 68.4202 42.1398 68.1117 42.0886 65.6443C41.986 59.9383 41.986 59.9383 47.3176 58.0877C49.3169 57.4195 51.3162 56.6998 53.3668 56.0315C56.3402 55.0548 56.494 55.1576 56.5453 58.3962C56.494 58.8074 56.494 59.2186 56.494 60.1439ZM53.982 58.3962C51.5213 59.2186 49.3169 60.0925 47.01 60.658C44.498 61.2748 44.0879 62.7656 44.8569 65.0788C47.215 64.2563 49.3682 63.2796 51.6751 62.7656C54.1358 62.2515 54.5972 60.8636 53.982 58.3962Z" fill="#653E21"/>
<path d="M27.478 41.3809C27.6831 43.6941 27.478 45.9046 26.504 48.0636C25.8376 49.4515 24.8635 50.531 23.6332 51.4049C22.8642 51.9704 22.0952 52.4844 21.3262 52.9985C20.4547 53.5639 19.4807 53.5639 18.6092 53.1527C16.9174 52.2274 15.2257 51.1479 13.9441 49.6057C12.6112 47.9094 11.9447 45.9046 11.8935 43.7456C11.8935 42.9745 11.9447 42.2548 11.9447 41.4837C12.7137 41.2781 13.4827 41.0725 14.2517 40.8669C17.1225 40.0958 19.9933 39.8902 22.9667 40.3528C24.5047 40.5584 25.9913 41.0211 27.478 41.3809Z" fill="#F0A559"/>
<path d="M27.478 41.381C25.9913 41.0212 24.5047 40.5585 23.018 40.3015C20.0959 39.8389 17.1738 40.0445 14.3029 40.8156C13.534 41.0212 12.765 41.2268 11.996 41.4324C11.9447 41.4324 11.8935 41.4324 11.8935 41.4324C10.4068 41.5352 10.0992 41.1754 10.2017 39.6846C10.3555 37.577 11.5346 36.1891 13.2776 35.2638C14.9694 34.3899 16.7636 34.0301 18.6605 33.9787C19.1731 33.9787 19.3782 33.8759 19.3782 33.3104C19.3782 32.0767 19.6858 30.8944 20.506 29.9177C20.7111 29.6607 20.9674 29.4036 21.275 29.6607C21.6338 29.9177 21.4288 30.2261 21.2237 30.4831C20.5573 31.2542 20.3522 32.1795 20.2497 33.2076C20.1984 33.7731 20.3522 33.9787 20.9674 33.9787C22.8129 33.9787 24.6072 34.3385 26.2989 35.1096C28.1445 35.9835 29.3748 37.3714 29.6312 39.479C29.7337 41.2782 29.221 41.7409 27.478 41.381Z" fill="#653E21"/>
</g>
<defs>
<clipPath id="clip0_18:264">
<rect width="77" height="75" fill="white"/>
</clipPath>
</defs>
</svg>
